<svg width="1440" height="342" viewBox="0 0 1440 342" fill="none" xmlns="http://www.w3.org/2000/svg">
<path d="M-17.4208 230.818C-46.2539 170.196 -17.6945 96.2478 46.5249 65.7036C110.744 35.1597 186.131 59.6688 214.964 120.29C243.797 180.912 215.238 254.859 151.019 285.404C86.7998 315.948 11.4124 291.44 -17.4208 230.818Z" fill="#FFFDFA" stroke="black" stroke-width="2"/>
<path d="M379.578 230.711C350.745 170.089 379.304 96.1403 443.524 65.5961C507.743 35.0522 583.13 59.5614 611.963 120.183C640.796 180.805 612.237 254.752 548.018 285.296C483.799 315.84 408.411 291.332 379.578 230.711Z" fill="#FFFDFA" stroke="black" stroke-width="2"/>
<path d="M798.586 230.711C769.753 170.089 798.312 96.1403 862.532 65.5961C926.751 35.0522 1002.14 59.5614 1030.97 120.183C1059.8 180.805 1031.25 254.752 967.026 285.296C902.807 315.84 827.419 291.332 798.586 230.711Z" fill="#FFFDFA" stroke="black" stroke-width="2"/>
<path d="M1225.61 221.711C1196.78 161.089 1225.34 87.1403 1289.56 56.5961C1353.78 26.0522 1429.17 50.5614 1458 111.183C1486.83 171.805 1458.27 245.752 1394.05 276.296C1329.83 306.84 1254.45 282.332 1225.61 221.711Z" fill="#FFFDFA" stroke="black" stroke-width="2"/>
</svg>
