<svg width="53" height="50" viewBox="0 0 53 50" fill="none" xmlns="http://www.w3.org/2000/svg">
<path d="M0 27.4066C0 17.8297 7.76356 10.0662 17.3404 10.0662H34.7927C44.3695 10.0662 52.1331 17.8297 52.1331 27.4066V27.4066C52.1331 36.9834 44.3695 44.7469 34.7927 44.7469H17.3404C7.76356 44.7469 0 36.9834 0 27.4066V27.4066Z" fill="#FFE946"/>
<path d="M34.793 43.7468V44.7468H17.3408V43.7468H34.793ZM51.1328 27.407C51.1328 18.3825 43.8174 11.0663 34.793 11.0662H17.3408C8.31627 11.0662 1 18.3824 1 27.407C1.00023 36.4313 8.31641 43.7468 17.3408 43.7468V44.7468L16.8926 44.741C7.67149 44.5072 0.239548 37.0754 0.00585938 27.8542L0 27.407C0 17.9799 7.52271 10.3095 16.8926 10.072L17.3408 10.0662H34.793L35.2402 10.072C44.6102 10.3094 52.1328 17.9798 52.1328 27.407L52.127 27.8542C51.8933 37.0754 44.4614 44.5073 35.2402 44.741L34.793 44.7468V43.7468C43.8172 43.7467 51.1326 36.4312 51.1328 27.407Z" fill="#181816"/>
<path d="M8.62817 17.2563C8.62817 7.72589 16.3541 0 25.8844 0V0C35.4148 0 43.1407 7.72589 43.1407 17.2563V27.3224C43.1407 36.8528 35.4148 44.5787 25.8844 44.5787V44.5787C16.3541 44.5787 8.62817 36.8528 8.62817 27.3224V17.2563Z" fill="#FFE946"/>
<path d="M42.1409 27.3223V17.2559C42.1407 8.27796 34.862 1 25.884 1C16.9063 1.00021 9.62839 8.27809 9.62817 17.2559V27.3223C9.62817 36.3002 16.9061 43.5789 25.884 43.5791V44.5791L25.4387 44.5732C16.1143 44.3368 8.62817 36.7036 8.62817 27.3223V17.2559C8.62839 7.72581 16.354 0.00021234 25.884 0C35.4143 0 43.1407 7.72568 43.1409 17.2559V27.3223L43.135 27.7676C42.8989 37.0922 35.2656 44.5791 25.884 44.5791V43.5791C34.8621 43.5791 42.1409 36.3003 42.1409 27.3223Z" fill="#181816"/>
<path d="M0 31.7206C0 22.1438 7.76356 14.3802 17.3404 14.3802H34.7927C44.3695 14.3802 52.1331 22.1438 52.1331 31.7206V31.7206C52.1331 41.2975 44.3695 49.061 34.7927 49.061H17.3404C7.76356 49.061 0 41.2975 0 31.7206V31.7206Z" fill="#FFE946"/>
<path d="M34.793 48.0609V49.0609H17.3408V48.0609H34.793ZM51.1328 31.7211C51.1328 22.6966 43.8174 15.3804 34.793 15.3802H17.3408C8.31627 15.3802 1 22.6965 1 31.7211C1.00023 40.7454 8.31641 48.0609 17.3408 48.0609V49.0609L16.8926 49.0551C7.67149 48.8213 0.239548 41.3894 0.00585938 32.1683L0 31.7211C0 22.294 7.52271 14.6236 16.8926 14.3861L17.3408 14.3802H34.793L35.2402 14.3861C44.6102 14.6235 52.1328 22.2939 52.1328 31.7211L52.127 32.1683C51.8933 41.3895 44.4614 48.8214 35.2402 49.0551L34.793 49.0609V48.0609C43.8172 48.0607 51.1326 40.7453 51.1328 31.7211Z" fill="#181816"/>
<path d="M8.72607 31.7206C8.72607 22.1438 16.6015 14.3802 26.1783 14.3802V14.3802C35.7552 14.3802 43.6306 22.1438 43.6306 31.7206V31.7206C43.6306 41.2975 35.7552 49.061 26.1783 49.061V49.061C16.6015 49.061 8.72607 41.2975 8.72607 31.7206V31.7206Z" fill="#FFE946"/>
<path d="M42.6306 31.7211C42.6306 22.7049 35.2113 15.3803 26.1783 15.3803C17.1454 15.3803 9.72608 22.7049 9.72608 31.7211C9.72632 40.7371 17.1455 48.061 26.1783 48.061V49.061C16.7512 49.061 8.97278 41.5383 8.73193 32.1684L8.72607 31.7211C8.72607 22.1443 16.6015 14.3803 26.1783 14.3802C35.7552 14.3802 43.6306 22.1443 43.6306 31.7211L43.6248 32.1684C43.3839 41.5384 35.6056 49.061 26.1783 49.061V48.061C35.2112 48.061 42.6304 40.7372 42.6306 31.7211Z" fill="#181816"/>
<path d="M32.85 34.382V35.606H34.29V36.164H32.85V37.442H34.47V38H32.166V33.824H34.47V34.382H32.85Z" fill="#181816"/>
<path d="M30.541 38L29.581 36.332H29.059V38H28.375V33.83H29.815C30.135 33.83 30.405 33.886 30.625 33.998C30.849 34.11 31.015 34.26 31.123 34.448C31.235 34.636 31.291 34.846 31.291 35.078C31.291 35.35 31.211 35.598 31.051 35.822C30.895 36.042 30.653 36.192 30.325 36.272L31.357 38H30.541ZM29.059 35.786H29.815C30.071 35.786 30.263 35.722 30.391 35.594C30.523 35.466 30.589 35.294 30.589 35.078C30.589 34.862 30.525 34.694 30.397 34.574C30.269 34.45 30.075 34.388 29.815 34.388H29.059V35.786Z" fill="#181816"/>
<path d="M25.5719 38.042C25.1839 38.042 24.8259 37.952 24.4979 37.772C24.1739 37.588 23.9159 37.334 23.7239 37.01C23.5359 36.682 23.4419 36.314 23.4419 35.906C23.4419 35.498 23.5359 35.132 23.7239 34.808C23.9159 34.484 24.1739 34.232 24.4979 34.052C24.8259 33.868 25.1839 33.776 25.5719 33.776C25.9639 33.776 26.3219 33.868 26.6459 34.052C26.9739 34.232 27.2319 34.484 27.4199 34.808C27.6079 35.132 27.7019 35.498 27.7019 35.906C27.7019 36.314 27.6079 36.682 27.4199 37.01C27.2319 37.334 26.9739 37.588 26.6459 37.772C26.3219 37.952 25.9639 38.042 25.5719 38.042ZM25.5719 37.448C25.8479 37.448 26.0939 37.386 26.3099 37.262C26.5259 37.134 26.6939 36.954 26.8139 36.722C26.9379 36.486 26.9999 36.214 26.9999 35.906C26.9999 35.598 26.9379 35.328 26.8139 35.096C26.6939 34.864 26.5259 34.686 26.3099 34.562C26.0939 34.438 25.8479 34.376 25.5719 34.376C25.2959 34.376 25.0499 34.438 24.8339 34.562C24.6179 34.686 24.4479 34.864 24.3239 35.096C24.2039 35.328 24.1439 35.598 24.1439 35.906C24.1439 36.214 24.2039 36.486 24.3239 36.722C24.4479 36.954 24.6179 37.134 24.8339 37.262C25.0499 37.386 25.2959 37.448 25.5719 37.448Z" fill="#181816"/>
<path d="M22.9771 33.83V34.388H21.8671V38H21.1831V34.388H20.0671V33.83H22.9771Z" fill="#181816"/>
<path d="M18.0361 38.042C17.7561 38.042 17.5041 37.994 17.2801 37.898C17.0561 37.798 16.8801 37.658 16.7521 37.478C16.6241 37.298 16.5601 37.088 16.5601 36.848H17.2921C17.3081 37.028 17.3781 37.176 17.5021 37.292C17.6301 37.408 17.8081 37.466 18.0361 37.466C18.2721 37.466 18.4561 37.41 18.5881 37.298C18.7201 37.182 18.7861 37.034 18.7861 36.854C18.7861 36.714 18.7441 36.6 18.6601 36.512C18.5801 36.424 18.4781 36.356 18.3541 36.308C18.2341 36.26 18.0661 36.208 17.8501 36.152C17.5781 36.08 17.3561 36.008 17.1841 35.936C17.0161 35.86 16.8721 35.744 16.7521 35.588C16.6321 35.432 16.5721 35.224 16.5721 34.964C16.5721 34.724 16.6321 34.514 16.7521 34.334C16.8721 34.154 17.0401 34.016 17.2561 33.92C17.4721 33.824 17.7221 33.776 18.0061 33.776C18.4101 33.776 18.7401 33.878 18.9961 34.082C19.2561 34.282 19.4001 34.558 19.4281 34.91H18.6721C18.6601 34.758 18.5881 34.628 18.4561 34.52C18.3241 34.412 18.1501 34.358 17.9341 34.358C17.7381 34.358 17.5781 34.408 17.4541 34.508C17.3301 34.608 17.2681 34.752 17.2681 34.94C17.2681 35.068 17.3061 35.174 17.3821 35.258C17.4621 35.338 17.5621 35.402 17.6821 35.45C17.8021 35.498 17.9661 35.55 18.1741 35.606C18.4501 35.682 18.6741 35.758 18.8461 35.834C19.0221 35.91 19.1701 36.028 19.2901 36.188C19.4141 36.344 19.4761 36.554 19.4761 36.818C19.4761 37.03 19.4181 37.23 19.3021 37.418C19.1901 37.606 19.0241 37.758 18.8041 37.874C18.5881 37.986 18.3321 38.042 18.0361 38.042Z" fill="#181816"/>
<path d="M34.5947 29.042C34.3147 29.042 34.0627 28.994 33.8387 28.898C33.6147 28.798 33.4387 28.658 33.3107 28.478C33.1827 28.298 33.1187 28.088 33.1187 27.848H33.8507C33.8667 28.028 33.9367 28.176 34.0607 28.292C34.1887 28.408 34.3667 28.466 34.5947 28.466C34.8307 28.466 35.0147 28.41 35.1467 28.298C35.2787 28.182 35.3447 28.034 35.3447 27.854C35.3447 27.714 35.3027 27.6 35.2187 27.512C35.1387 27.424 35.0367 27.356 34.9127 27.308C34.7927 27.26 34.6247 27.208 34.4087 27.152C34.1367 27.08 33.9147 27.008 33.7427 26.936C33.5747 26.86 33.4307 26.744 33.3107 26.588C33.1907 26.432 33.1307 26.224 33.1307 25.964C33.1307 25.724 33.1907 25.514 33.3107 25.334C33.4307 25.154 33.5987 25.016 33.8147 24.92C34.0307 24.824 34.2807 24.776 34.5647 24.776C34.9687 24.776 35.2987 24.878 35.5547 25.082C35.8147 25.282 35.9587 25.558 35.9867 25.91H35.2307C35.2187 25.758 35.1467 25.628 35.0147 25.52C34.8827 25.412 34.7087 25.358 34.4927 25.358C34.2967 25.358 34.1367 25.408 34.0127 25.508C33.8887 25.608 33.8267 25.752 33.8267 25.94C33.8267 26.068 33.8647 26.174 33.9407 26.258C34.0207 26.338 34.1207 26.402 34.2407 26.45C34.3607 26.498 34.5247 26.55 34.7327 26.606C35.0087 26.682 35.2327 26.758 35.4047 26.834C35.5807 26.91 35.7287 27.028 35.8487 27.188C35.9727 27.344 36.0347 27.554 36.0347 27.818C36.0347 28.03 35.9767 28.23 35.8607 28.418C35.7487 28.606 35.5827 28.758 35.3627 28.874C35.1467 28.986 34.8907 29.042 34.5947 29.042Z" fill="#181816"/>
<path d="M30.9736 29.042C30.6936 29.042 30.4416 28.994 30.2176 28.898C29.9936 28.798 29.8176 28.658 29.6896 28.478C29.5616 28.298 29.4976 28.088 29.4976 27.848H30.2296C30.2456 28.028 30.3156 28.176 30.4396 28.292C30.5676 28.408 30.7456 28.466 30.9736 28.466C31.2096 28.466 31.3936 28.41 31.5256 28.298C31.6576 28.182 31.7236 28.034 31.7236 27.854C31.7236 27.714 31.6816 27.6 31.5976 27.512C31.5176 27.424 31.4156 27.356 31.2916 27.308C31.1716 27.26 31.0036 27.208 30.7876 27.152C30.5156 27.08 30.2936 27.008 30.1216 26.936C29.9536 26.86 29.8096 26.744 29.6896 26.588C29.5696 26.432 29.5096 26.224 29.5096 25.964C29.5096 25.724 29.5696 25.514 29.6896 25.334C29.8096 25.154 29.9776 25.016 30.1936 24.92C30.4096 24.824 30.6596 24.776 30.9436 24.776C31.3476 24.776 31.6776 24.878 31.9336 25.082C32.1936 25.282 32.3376 25.558 32.3656 25.91H31.6096C31.5976 25.758 31.5256 25.628 31.3936 25.52C31.2616 25.412 31.0876 25.358 30.8716 25.358C30.6756 25.358 30.5156 25.408 30.3916 25.508C30.2676 25.608 30.2056 25.752 30.2056 25.94C30.2056 26.068 30.2436 26.174 30.3196 26.258C30.3996 26.338 30.4996 26.402 30.6196 26.45C30.7396 26.498 30.9036 26.55 31.1116 26.606C31.3876 26.682 31.6116 26.758 31.7836 26.834C31.9596 26.91 32.1076 27.028 32.2276 27.188C32.3516 27.344 32.4136 27.554 32.4136 27.818C32.4136 28.03 32.3556 28.23 32.2396 28.418C32.1276 28.606 31.9616 28.758 31.7416 28.874C31.5256 28.986 31.2696 29.042 30.9736 29.042Z" fill="#181816"/>
<path d="M27.1371 25.382V26.606H28.5771V27.164H27.1371V28.442H28.7571V29H26.4531V24.824H28.7571V25.382H27.1371Z" fill="#181816"/>
<path d="M24.8281 29L23.8681 27.332H23.3461V29H22.6621V24.83H24.1021C24.4221 24.83 24.6921 24.886 24.9121 24.998C25.1361 25.11 25.3021 25.26 25.4101 25.448C25.5221 25.636 25.5781 25.846 25.5781 26.078C25.5781 26.35 25.4981 26.598 25.3381 26.822C25.1821 27.042 24.9401 27.192 24.6121 27.272L25.6441 29H24.8281ZM23.3461 26.786H24.1021C24.3581 26.786 24.5501 26.722 24.6781 26.594C24.8101 26.466 24.8761 26.294 24.8761 26.078C24.8761 25.862 24.8121 25.694 24.6841 25.574C24.5561 25.45 24.3621 25.388 24.1021 25.388H23.3461V26.786Z" fill="#181816"/>
<path d="M22.0098 26.072C22.0098 26.284 21.9597 26.484 21.8597 26.672C21.7597 26.86 21.5998 27.014 21.3798 27.134C21.1598 27.25 20.8778 27.308 20.5338 27.308H19.7778V29H19.0938V24.83H20.5338C20.8538 24.83 21.1237 24.886 21.3438 24.998C21.5678 25.106 21.7338 25.254 21.8418 25.442C21.9538 25.63 22.0098 25.84 22.0098 26.072ZM20.5338 26.75C20.7938 26.75 20.9878 26.692 21.1158 26.576C21.2438 26.456 21.3078 26.288 21.3078 26.072C21.3078 25.616 21.0498 25.388 20.5338 25.388H19.7778V26.75H20.5338Z" fill="#181816"/>
<path d="M17.0467 26.918L18.3427 29H17.5747L16.6327 27.488L15.7507 29H14.9887L16.2847 26.918L14.9827 24.83H15.7507L16.6987 26.354L17.5867 24.83H18.3487L17.0467 26.918Z" fill="#181816"/>
</svg>
