<svg width="1440" height="227" viewBox="0 0 1440 227" fill="none" xmlns="http://www.w3.org/2000/svg">
<path d="M26.9917 -70.5176C89.0856 -104.424 168.393 -78.6607 204.175 -13.1333C239.956 52.3942 218.753 133.042 156.659 166.948C94.5652 200.854 15.2576 175.09 -20.5235 109.562C-56.3043 44.0351 -35.102 -36.6113 26.9917 -70.5176Z" fill="#FFE946" stroke="#181816" stroke-width="2"/>
<path d="M1319.98 139.974C1250.8 125.181 1207.48 53.9287 1223.09 -19.0812C1238.7 -92.0911 1307.37 -139.4 1376.55 -124.607C1445.74 -109.814 1489.06 -38.561 1473.45 34.4489C1457.83 107.459 1389.17 154.767 1319.98 139.974Z" fill="#FFE946" stroke="#181816" stroke-width="2"/>
<path d="M498.758 124.44C429.574 109.647 386.255 38.3947 401.865 -34.6151C417.476 -107.625 486.145 -154.934 555.33 -140.141C624.514 -125.348 667.832 -54.0949 652.221 18.915C636.61 91.9246 567.942 139.233 498.758 124.44Z" fill="#FFE946" stroke="#181816" stroke-width="2"/>
<path d="M936.814 87.1589C867.629 72.3662 824.31 1.1135 839.921 -71.8963C855.532 -144.906 924.201 -192.215 993.385 -177.422C1062.57 -162.629 1105.89 -91.3761 1090.28 -18.3663C1074.67 54.6434 1006 101.951 936.814 87.1589Z" fill="#FFE946" stroke="#181816" stroke-width="2"/>
</svg>
