<svg width="1440" height="192" viewBox="0 0 1440 192" fill="none" xmlns="http://www.w3.org/2000/svg">
<path d="M-38.2053 245.776C-67.5689 184.039 -38.4334 108.915 26.7138 77.9292C91.8609 46.9439 168.524 71.7481 197.887 133.486C227.251 195.223 198.116 270.347 132.969 301.332C67.822 332.318 -8.84149 307.514 -38.2053 245.776Z" fill="#FFE946" stroke="#181816" stroke-width="2"/>
<path d="M335.948 245.776C306.584 184.039 335.719 108.915 400.867 77.9292C466.014 46.9439 542.676 71.7481 572.04 133.486C601.404 195.223 572.269 270.347 507.122 301.332C441.975 332.318 365.311 307.514 335.948 245.776Z" fill="#FFE946" stroke="#181816" stroke-width="2"/>
<path d="M711.101 245.776C681.737 184.039 710.872 108.915 776.02 77.9292C841.167 46.9439 917.83 71.7481 947.193 133.486C976.557 195.223 947.422 270.347 882.275 301.332C817.128 332.318 740.464 307.514 711.101 245.776Z" fill="#FFE946" stroke="#181816" stroke-width="2"/>
<path d="M1206.66 222.66C1177.29 160.922 1206.43 85.7977 1271.58 54.8123C1336.72 23.827 1413.38 48.6311 1442.75 110.369C1472.11 172.106 1442.98 247.23 1377.83 278.215C1312.68 309.201 1236.02 284.397 1206.66 222.66Z" fill="#FFE946" stroke="#181816" stroke-width="2"/>
</svg>
