<svg width="1440" height="1320" viewBox="0 0 1440 1320" fill="none" xmlns="http://www.w3.org/2000/svg">
<path d="M26.9917 -70.5176C89.0856 -104.424 168.393 -78.6607 204.175 -13.1333C239.956 52.3942 218.753 133.042 156.659 166.948C94.5652 200.854 15.2576 175.09 -20.5235 109.562C-56.3043 44.0351 -35.102 -36.6113 26.9917 -70.5176Z" fill="#FFE946" stroke="#181816" stroke-width="2"/>
<path d="M1319.98 139.974C1250.8 125.181 1207.48 53.9287 1223.09 -19.0812C1238.7 -92.0911 1307.37 -139.4 1376.55 -124.607C1445.74 -109.814 1489.06 -38.561 1473.45 34.4489C1457.84 107.459 1389.17 154.767 1319.98 139.974Z" fill="#FFE946" stroke="#181816" stroke-width="2"/>
<path d="M498.758 124.44C429.574 109.647 386.255 38.3947 401.866 -34.6151C417.476 -107.625 486.146 -154.934 555.33 -140.141C624.514 -125.348 667.832 -54.0949 652.221 18.915C636.611 91.9246 567.942 139.233 498.758 124.44Z" fill="#FFE946" stroke="#181816" stroke-width="2"/>
<path d="M936.814 87.1589C867.629 72.3662 824.311 1.1135 839.921 -71.8963C855.532 -144.906 924.201 -192.215 993.385 -177.422C1062.57 -162.629 1105.89 -91.3761 1090.28 -18.3663C1074.67 54.6434 1006 101.951 936.814 87.1589Z" fill="#FFE946" stroke="#181816" stroke-width="2"/>
<path d="M-38.2053 1373.78C-67.5689 1312.04 -38.4334 1236.91 26.7138 1205.93C91.861 1174.94 168.524 1199.75 197.887 1261.49C227.251 1323.22 198.116 1398.35 132.969 1429.33C67.822 1460.32 -8.84146 1435.51 -38.2053 1373.78Z" fill="#FFE946" stroke="#181816" stroke-width="2"/>
<path d="M335.947 1373.78C306.584 1312.04 335.719 1236.91 400.867 1205.93C466.014 1174.94 542.676 1199.75 572.04 1261.49C601.404 1323.22 572.269 1398.35 507.122 1429.33C441.975 1460.32 365.311 1435.51 335.947 1373.78Z" fill="#FFE946" stroke="#181816" stroke-width="2"/>
<path d="M711.101 1373.78C681.737 1312.04 710.872 1236.91 776.02 1205.93C841.167 1174.94 917.829 1199.75 947.193 1261.49C976.557 1323.22 947.422 1398.35 882.275 1429.33C817.128 1460.32 740.464 1435.51 711.101 1373.78Z" fill="#FFE946" stroke="#181816" stroke-width="2"/>
<path d="M1206.66 1350.66C1177.29 1288.92 1206.43 1213.8 1271.58 1182.81C1336.72 1151.83 1413.39 1176.63 1442.75 1238.37C1472.11 1300.11 1442.98 1375.23 1377.83 1406.22C1312.68 1437.2 1236.02 1412.4 1206.66 1350.66Z" fill="#FFE946" stroke="#181816" stroke-width="2"/>
</svg>
