<svg width="138" height="221" viewBox="0 0 138 221" fill="none" xmlns="http://www.w3.org/2000/svg">
<path d="M2.63481 10.7355C1.55024 9.15335 0.949582 7.46258 1.00308 5.66115C1.05654 3.86432 1.75765 2.06748 3.0776 0.262863C5.68906 -3.30733 10.8582 -7.08968 18.9946 -11.2865C84.2522 -44.9465 161.083 -26.3843 190.459 30.5677C205.116 58.9838 208.518 96.1116 200.12 130.33C191.72 164.558 171.481 195.991 138.723 212.888C130.585 217.085 124.482 219.154 120.011 219.315C117.755 219.396 115.856 218.994 114.319 218.08C112.775 217.161 111.683 215.776 110.959 214.052C109.536 210.667 109.483 205.859 110.15 200.182C110.822 194.466 112.251 187.684 113.949 180.249C117.352 165.339 121.848 147.738 123.689 130.331C125.532 112.918 124.695 95.8674 117.562 82.0391C110.433 68.2174 96.7678 57.6371 81.114 49.0202C65.4685 40.4079 47.9936 33.837 33.3469 27.94C26.0409 24.9986 19.4252 22.2182 14.1333 19.4408C8.876 16.6816 4.76855 13.8481 2.63481 10.7355Z" fill="url(#paint0_linear_429_579)" stroke="#181816" stroke-width="2"/>
<defs>
<linearGradient id="paint0_linear_429_579" x1="-45.413" y1="152.231" x2="189.57" y2="31.0262" gradientUnits="userSpaceOnUse">
<stop stop-color="white"/>
<stop offset="1" stop-color="white"/>
</linearGradient>
</defs>
</svg>
